<svg xmlns="http://www.w3.org/2000/svg" width="40" height="40" viewBox="0 0 40 40" fill="none">
  <path fill="#219FCA" d="M23.58 5.3c-2.67.3-4.55 1.05-6.08 2.42a7.09 7.09 0 0 0-2.26 3.9c-.09.37-.16.7-.18.73-.01.06-.38.07-1.57.07h-1.54v1.67h1.33c1.15 0 1.34.01 1.34.08 0 .22-2.5 14.28-2.61 14.65a6.69 6.69 0 0 1-2.1 3.37c-.5.44-.66.54-1.4.88-.5.23-.83.4-.82.45.02.03.15.32.28.65.15.33.26.6.28.61.03.04 1.65-.48 2.1-.67a8.63 8.63 0 0 0 3.62-3 9.57 9.57 0 0 0 1.35-3.02c.08-.28.84-4.2 1.7-8.74.86-4.53 1.63-8.44 1.7-8.67a5.2 5.2 0 0 1 4.24-3.88 8.6 8.6 0 0 1 2.6 0c1.45.4 2.3 1.44 2.39 2.91.04.65.11.57-.84.83-2.1.55-4 1.49-5.13 2.53a4.58 4.58 0 0 0-1.32 1.88c-.2.5-.2.53-.2 1.43 0 .75.02.96.12 1.2.42 1.12 1.23 1.93 3 3 1.81 1.1 2.66 1.87 3.03 2.75.18.43.22 1.37.08 1.82-.3.97-1.32 1.66-2.88 1.95-.52.1-1.47.13-1.94.06a8.24 8.24 0 0 1-2.73-.97l-.37-.22-.47.86c-.26.48-.48.89-.48.92 0 .18 1.91.83 2.91 1 .7.12 2.75.13 3.47.03 2.07-.3 3.58-.96 4.74-2.05a3.93 3.93 0 0 0 1.38-3.28 4.43 4.43 0 0 0-1.54-3.06c-.53-.5-1.03-.86-2.08-1.53-1.92-1.24-2.6-1.9-2.8-2.78a3 3 0 0 1 .58-2.42 6.79 6.79 0 0 1 3.43-1.96c.68-.18 2.13-.47 2.78-.54.17-.03.35-.07.4-.11.1-.1.17-.77.17-1.58-.02-1-.28-1.73-.89-2.46a5.6 5.6 0 0 0-3.41-1.66 17.6 17.6 0 0 0-3.38-.05z"/>
</svg>
